# xmcd
#
# Track frame offsets:
#	150
#	13775
#	27118
#	41075
#	55099
#	69915
#	85030
#	99399
#	113350
#	128493
#	140838
#	155324
#	167126
#	182575
#	197599
#	211619
#	224036
#	237422
#	250239
#	264863
#	278346
#	290740
#	303867
#
# Disc length: 4185 seconds
#
# Revision: 0
# Processed by: cddbd v1.5.2PL0 Copyright (c) Steve Scherf et al.
# Submitted via: EasyCDDAExtractor 11.0.2.1
#
DISCID=35105717
DTITLE=Various Artist - Disco Hits Of 80's [CD1)
DYEAR=1900
DGENRE=Disco
TTITLE0=FREEZ - I. O. U
TTITLE1=THE WEATHER GIRLS - It's Raining Man
TTITLE2=PATRICK LION - Happy Children
TTITLE3=EARTHA KITT - Where Is My Man
TTITLE4=FUN FUN - Colour My Love
TTITLE5=EVELYN THOMAS - High Energy
TTITLE6=TONY ESPOSITO - Calimba De Luna
TTITLE7=MIGUEL BROWN - So Many Men So Little Time
TTITLE8=MIKO MISSION - The Word Is You
TTITLE9=SABRINA - Boys Boys Boys
TTITLE10=SILVER POZZOLI - Around My Dream
TTITLE11=OTTAWAN - D.I.S.C.O
TTITLE12=SISTER SLEDGE - We Are Family
TTITLE13=IMAGINATION - Just An Illusion
TTITLE14=JOCELYN BROWN - Somebody Else's Guy
TTITLE15=B.V.S.M.P - I Need You
TTITLE16=BREAK MACHINE - Street Dance
TTITLE17=SYLVESTER - You Make Me Feel (Mighty Real)
TTITLE18=GREG KIHN BAND - Jeopardy
TTITLE19=GAZEBO - I Like Chopin
TTITLE20=LUCIA - La Isla Bonita
TTITLE21=STRETCH - Why Did You Do It
TTITLE22=PINO D' ANGIO - Ma Quale Idea
EXTD=
EXTT0=
EXTT1=
EXTT2=
EXTT3=
EXTT4=
EXTT5=
EXTT6=
EXTT7=
EXTT8=
EXTT9=
EXTT10=
EXTT11=
EXTT12=
EXTT13=
EXTT14=
EXTT15=
EXTT16=
EXTT17=
EXTT18=
EXTT19=
EXTT20=
EXTT21=
EXTT22=
PLAYORDER=
